<svg width="174" height="24" viewBox="0 0 174 24" fill="none" xmlns="http://www.w3.org/2000/svg">
<path d="M8.224 23C6.73067 23 5.42933 22.7013 4.32 22.104C3.21067 21.5067 2.34667 20.728 1.728 19.768C1.10933 18.7867 0.8 17.7413 0.8 16.632C0.8 15.5013 1.10933 14.6587 1.728 14.104C2.34667 13.5493 3.01867 13.272 3.744 13.272C4.49067 13.272 5.04533 13.4213 5.408 13.72C5.77067 13.9973 6.03733 14.328 6.208 14.712C6.4 15.0747 6.60267 15.4053 6.816 15.704C7.05067 15.9813 7.40267 16.12 7.872 16.12C8.72533 16.12 9.216 15.608 9.344 14.584C9.49333 13.56 9.55733 12.0773 9.536 10.136C9.536 9.41067 9.536 8.76 9.536 8.184C8.42667 8.14133 7.41333 8.00267 6.496 7.768C5.57867 7.53333 4.85333 7.16 4.32 6.648C3.78667 6.11467 3.52 5.368 3.52 4.408C3.52 3.512 3.75467 2.808 4.224 2.296C4.71467 1.76267 5.376 1.37867 6.208 1.144C7.04 0.909333 7.97867 0.76 9.024 0.695999C10.0693 0.631999 11.1467 0.599998 12.256 0.599998C13.3867 0.599998 14.464 0.631999 15.488 0.695999C16.5333 0.76 17.4613 0.909333 18.272 1.144C19.104 1.37867 19.7547 1.76267 20.224 2.296C20.7147 2.808 20.96 3.512 20.96 4.408C20.96 5.56 20.576 6.40267 19.808 6.936C19.04 7.46933 18.0587 7.832 16.864 8.024C16.9067 8.57867 16.928 9.19733 16.928 9.88C16.9493 10.5627 16.96 11.3093 16.96 12.12C16.96 15.704 16.2453 18.4133 14.816 20.248C13.408 22.0827 11.2107 23 8.224 23ZM32.5648 23C30.6874 23 29.0448 22.68 27.6368 22.04C26.2288 21.4 25.0448 20.5253 24.0848 19.416C23.1461 18.3067 22.4421 17.048 21.9728 15.64C21.5034 14.2107 21.2688 12.7173 21.2688 11.16C21.2688 10.2853 21.3008 9.368 21.3648 8.408C21.4288 7.42667 21.5568 6.47733 21.7488 5.56C21.9408 4.64267 22.2181 3.81067 22.5807 3.064C22.9648 2.31733 23.4554 1.72 24.0528 1.272C24.6501 0.823999 25.3968 0.599998 26.2928 0.599998C27.4448 0.599998 28.3301 0.845332 28.9488 1.336C29.5888 1.80533 30.0368 2.40267 30.2928 3.128C30.5488 3.85333 30.6768 4.6 30.6768 5.368C30.6768 6.24267 30.6341 6.97867 30.5488 7.576C30.4634 8.17333 30.3781 8.76 30.2928 9.336C30.2074 9.89067 30.1648 10.584 30.1648 11.416C30.1648 11.9707 30.2288 12.5467 30.3568 13.144C30.5061 13.7413 30.7514 14.2427 31.0928 14.648C31.4341 15.032 31.9248 15.224 32.5648 15.224C33.2261 15.224 33.7274 15.032 34.0688 14.648C34.4101 14.2427 34.6448 13.7413 34.7728 13.144C34.9008 12.5467 34.9648 11.9707 34.9648 11.416C34.9648 10.584 34.9221 9.89067 34.8368 9.336C34.7514 8.76 34.6661 8.17333 34.5808 7.576C34.4954 6.97867 34.4528 6.24267 34.4528 5.368C34.4528 4.6 34.5808 3.85333 34.8368 3.128C35.0928 2.40267 35.5408 1.80533 36.1808 1.336C36.8208 0.845332 37.7061 0.599998 38.8368 0.599998C39.7328 0.599998 40.4794 0.823999 41.0768 1.272C41.6741 1.72 42.1541 2.31733 42.5168 3.064C42.9008 3.81067 43.1888 4.64267 43.3808 5.56C43.5728 6.47733 43.7008 7.42667 43.7648 8.408C43.8288 9.368 43.8608 10.2853 43.8608 11.16C43.8608 12.7173 43.6261 14.2107 43.1568 15.64C42.6874 17.048 41.9728 18.3067 41.0128 19.416C40.0741 20.5253 38.9008 21.4 37.4928 22.04C36.0848 22.68 34.4421 23 32.5648 23ZM57.5278 23C56.7811 23 56.1624 22.808 55.6718 22.424C55.2024 22.0187 54.8824 21.5173 54.7118 20.92C54.5411 20.3227 54.4344 19.6613 54.3918 18.936C54.3491 18.1893 54.3278 17.4427 54.3278 16.696C54.3491 15.928 54.3491 15.224 54.3278 14.584C54.3064 13.944 54.2424 13.432 54.1358 13.048C54.0291 12.664 53.8264 12.472 53.5278 12.472C53.1011 12.472 52.8024 12.6533 52.6318 13.016C52.4611 13.3573 52.3758 13.8267 52.3758 14.424C52.3758 15 52.4078 15.6293 52.4718 16.312C52.5571 16.9947 52.6424 17.6773 52.7278 18.36C52.8131 19.0213 52.8558 19.608 52.8558 20.12C52.8558 21.1867 52.6104 21.9227 52.1198 22.328C51.6504 22.7333 50.9998 22.936 50.1678 22.936C49.3358 22.936 48.5998 22.5947 47.9598 21.912C47.3411 21.208 46.8184 20.312 46.3918 19.224C45.9864 18.1147 45.6771 16.92 45.4638 15.64C45.2504 14.36 45.1438 13.144 45.1438 11.992C45.1438 10.584 45.2931 9.21867 45.5918 7.896C45.9118 6.57333 46.3811 5.38933 46.9998 4.344C47.6398 3.29867 48.4291 2.46667 49.3678 1.848C50.3064 1.22933 51.4158 0.919998 52.6958 0.919998C53.6984 0.919998 54.5304 1.144 55.1918 1.592C55.8531 2.01867 56.3758 2.56267 56.7598 3.224C57.1651 3.88533 57.4424 4.55733 57.5918 5.24C57.7411 4.55733 58.0078 3.88533 58.3918 3.224C58.7758 2.56267 59.2984 2.01867 59.9598 1.592C60.6211 1.144 61.4424 0.919998 62.4237 0.919998C64.0451 0.919998 65.4211 1.42133 66.5518 2.424C67.7038 3.42667 68.5784 4.81333 69.1758 6.584C69.7731 8.33333 70.0718 10.3707 70.0718 12.696C70.0718 13.784 69.9544 14.936 69.7198 16.152C69.4851 17.3467 69.1438 18.4667 68.6958 19.512C68.2691 20.536 67.7464 21.3787 67.1278 22.04C66.5091 22.68 65.8051 23 65.0158 23C64.1624 23 63.4904 22.7867 62.9998 22.36C62.5091 21.9333 62.2638 21.1867 62.2638 20.12C62.2638 19.608 62.3064 19.0213 62.3918 18.36C62.4771 17.6773 62.5624 16.9947 62.6478 16.312C62.7331 15.6293 62.7758 15 62.7758 14.424C62.7758 13.8267 62.6904 13.3573 62.5198 13.016C62.3704 12.6533 62.0824 12.472 61.6558 12.472C61.3571 12.472 61.1438 12.664 61.0158 13.048C60.9091 13.432 60.8344 13.944 60.7917 14.584C60.7704 15.2027 60.7598 15.896 60.7598 16.664C60.7598 17.4107 60.7384 18.1573 60.6958 18.904C60.6744 19.6507 60.5784 20.3227 60.4078 20.92C60.2584 21.5173 59.9384 22.0187 59.4478 22.424C58.9571 22.808 58.3171 23 57.5278 23ZM75.8745 23.032C74.9145 23.032 74.1358 22.7227 73.5385 22.104C72.9412 21.464 72.4825 20.6213 72.1625 19.576C71.8425 18.5093 71.6292 17.3467 71.5225 16.088C71.4158 14.8293 71.3625 13.5813 71.3625 12.344C71.3625 10.8933 71.5545 9.47467 71.9385 8.088C72.3438 6.70133 72.9518 5.45333 73.7625 4.344C74.5945 3.21333 75.6398 2.31733 76.8985 1.656C78.1572 0.994666 79.6505 0.664 81.3785 0.664C83.1278 0.664 84.7065 1.02667 86.1145 1.752C87.5438 2.47733 88.6852 3.512 89.5385 4.856C90.3918 6.2 90.8185 7.8 90.8185 9.656C90.8185 11.32 90.5625 12.7493 90.0505 13.944C89.5385 15.1387 88.8452 16.12 87.9705 16.888C87.1172 17.6347 86.1572 18.1893 85.0905 18.552C84.0452 18.9147 82.9785 19.0853 81.8905 19.064C80.8025 19.0213 79.7892 18.808 78.8505 18.424C78.9572 18.936 79.0105 19.4587 79.0105 19.992C79.0318 20.5253 78.9465 21.0267 78.7545 21.496C78.5838 21.944 78.2638 22.3173 77.7945 22.616C77.3465 22.8933 76.7065 23.032 75.8745 23.032ZM81.6985 14.072C82.4665 14.072 83.1278 13.7947 83.6825 13.24C84.2585 12.664 84.5465 12.0027 84.5465 11.256C84.5465 10.488 84.2585 9.82667 83.6825 9.272C83.1278 8.696 82.4665 8.408 81.6985 8.408C80.9305 8.408 80.2585 8.696 79.6825 9.272C79.1278 9.82667 78.8505 10.488 78.8505 11.256C78.8505 12.0027 79.1278 12.664 79.6825 13.24C80.2585 13.7947 80.9305 14.072 81.6985 14.072ZM100.872 23C99.8051 23 98.7278 22.968 97.6398 22.904C96.5731 22.8187 95.5918 22.6267 94.6958 22.328C93.8211 22.008 93.1171 21.5173 92.5838 20.856C92.0504 20.1947 91.7838 19.288 91.7838 18.136C91.7838 17.3893 92.0504 16.632 92.5838 15.864C93.1171 15.0747 93.7891 14.3067 94.5998 13.56C95.4318 12.792 96.3171 12.0667 97.2558 11.384C98.1944 10.7013 99.0584 10.0827 99.8478 9.528C98.9944 9.61333 98.0664 9.63467 97.0638 9.592C96.0611 9.54933 95.1118 9.38933 94.2158 9.112C93.3198 8.83467 92.5838 8.408 92.0078 7.832C91.4318 7.256 91.1438 6.488 91.1438 5.528C91.1438 4.35467 91.5171 3.416 92.2638 2.712C93.0104 2.008 94.0131 1.496 95.2718 1.176C96.5518 0.855999 97.9598 0.695999 99.4958 0.695999C100.882 0.695999 102.216 0.770665 103.496 0.919998C104.797 1.048 105.96 1.31467 106.984 1.72C108.008 2.104 108.818 2.69067 109.416 3.48C110.034 4.248 110.344 5.272 110.344 6.552C110.344 7.512 110.12 8.41867 109.672 9.272C109.245 10.1253 108.669 10.9253 107.944 11.672C107.218 12.4187 106.408 13.112 105.512 13.752C104.637 14.3707 103.752 14.936 102.856 15.448C103.816 15.4693 104.744 15.5227 105.64 15.608C106.536 15.6933 107.325 15.864 108.008 16.12C108.712 16.3547 109.266 16.7173 109.672 17.208C110.077 17.6987 110.28 18.36 110.28 19.192C110.28 20.152 109.97 20.8987 109.352 21.432C108.754 21.944 107.976 22.3173 107.016 22.552C106.056 22.7653 105.032 22.8933 103.944 22.936C102.856 22.9787 101.832 23 100.872 23ZM121.587 23.032C120.115 23.0533 118.728 22.7867 117.427 22.232C116.126 21.6773 114.974 20.888 113.971 19.864C112.968 18.84 112.179 17.6453 111.603 16.28C111.027 14.9147 110.718 13.432 110.675 11.832C110.654 10.296 110.92 8.856 111.475 7.512C112.03 6.168 112.808 4.984 113.811 3.96C114.814 2.936 115.976 2.136 117.299 1.56C118.622 0.962666 120.051 0.664 121.587 0.664C123.059 0.642665 124.446 0.909332 125.747 1.464C127.048 2.01867 128.2 2.808 129.203 3.832C130.206 4.83467 130.995 6.01867 131.571 7.384C132.168 8.74933 132.478 10.232 132.499 11.832C132.542 13.368 132.275 14.808 131.699 16.152C131.144 17.496 130.366 18.68 129.363 19.704C128.36 20.7067 127.187 21.5067 125.843 22.104C124.52 22.68 123.102 22.9893 121.587 23.032ZM121.683 16.792C122.622 16.792 123.443 16.4507 124.147 15.768C124.872 15.0853 125.224 14.1573 125.203 12.984C125.203 11.7893 124.851 10.8507 124.147 10.168C123.443 9.48533 122.622 9.144 121.683 9.144C120.744 9.144 119.923 9.48533 119.219 10.168C118.515 10.8507 118.163 11.7893 118.163 12.984C118.163 14.1573 118.515 15.0853 119.219 15.768C119.923 16.4507 120.744 16.792 121.683 16.792ZM137.84 23C137.178 23 136.592 22.7333 136.08 22.2C135.589 21.6667 135.173 20.9627 134.832 20.088C134.512 19.2133 134.245 18.2533 134.032 17.208C133.84 16.1627 133.701 15.1173 133.616 14.072C133.53 13.0053 133.488 12.0453 133.488 11.192C133.488 10.104 133.573 8.952 133.743 7.736C133.914 6.52 134.213 5.37867 134.64 4.312C135.066 3.224 135.653 2.33867 136.4 1.656C137.146 0.973331 138.106 0.631998 139.28 0.631998C140.09 0.631998 140.794 0.898665 141.392 1.432C142.01 1.944 142.565 2.66933 143.056 3.608C143.546 4.52533 144.016 5.58133 144.464 6.776C144.912 7.97067 145.392 9.24 145.904 10.584C145.818 8.74933 145.872 7.08533 146.064 5.592C146.277 4.07733 146.704 2.872 147.344 1.976C147.984 1.08 148.89 0.631998 150.064 0.631998C151.066 0.631998 151.866 0.973331 152.464 1.656C153.082 2.33867 153.552 3.224 153.872 4.312C154.192 5.37867 154.405 6.52 154.512 7.736C154.64 8.952 154.704 10.104 154.704 11.192C154.704 12.0667 154.64 13.0267 154.512 14.072C154.384 15.1173 154.17 16.1627 153.872 17.208C153.573 18.2533 153.168 19.2133 152.656 20.088C152.144 20.9627 151.514 21.6667 150.767 22.2C150.042 22.7333 149.168 23 148.144 23C147.226 23 146.437 22.712 145.776 22.136C145.136 21.5387 144.56 20.76 144.048 19.8C143.557 18.8187 143.098 17.7413 142.672 16.568C142.245 15.3947 141.797 14.2213 141.328 13.048C141.349 14.52 141.349 15.8747 141.328 17.112C141.306 18.328 141.189 19.3733 140.976 20.248C140.784 21.1227 140.442 21.8053 139.952 22.296C139.461 22.7653 138.757 23 137.84 23ZM166.932 23C166.057 23 165.118 22.936 164.116 22.808C163.134 22.68 162.164 22.4133 161.204 22.008C160.244 21.6027 159.369 21.0053 158.58 20.216C157.79 19.4267 157.161 18.3813 156.692 17.08C156.222 15.7573 155.988 14.1253 155.988 12.184C155.988 10.0507 156.35 8.10933 157.076 6.36C157.801 4.61067 158.9 3.21333 160.372 2.168C161.844 1.12267 163.689 0.599998 165.908 0.599998C167.508 0.599998 168.809 0.738665 169.812 1.016C170.836 1.29333 171.635 1.656 172.212 2.104C172.788 2.552 173.182 3.04267 173.396 3.576C173.63 4.10933 173.748 4.64267 173.748 5.176C173.748 5.73067 173.598 6.264 173.3 6.776C173.022 7.288 172.574 7.69333 171.956 7.992C171.358 8.26933 170.74 8.39733 170.1 8.376C169.46 8.33333 168.884 8.312 168.372 8.312C167.262 8.312 166.388 8.51467 165.748 8.92C165.129 9.304 164.692 9.90133 164.436 10.712C164.777 10.6907 165.15 10.68 165.556 10.68C165.982 10.6587 166.42 10.648 166.868 10.648C167.742 10.648 168.574 10.6693 169.364 10.712C170.174 10.7333 170.74 10.776 171.06 10.84C171.806 10.9893 172.372 11.288 172.756 11.736C173.14 12.1627 173.332 12.6533 173.332 13.208C173.332 13.7413 173.15 14.2213 172.788 14.648C172.425 15.0747 171.838 15.3733 171.028 15.544C170.729 15.608 170.153 15.6613 169.3 15.704C168.468 15.7253 167.593 15.736 166.676 15.736C166.313 15.736 165.961 15.736 165.62 15.736C165.278 15.7147 164.969 15.704 164.692 15.704C164.99 16.3653 165.438 16.888 166.036 17.272C166.654 17.6347 167.444 17.816 168.404 17.816C168.766 17.816 169.289 17.784 169.972 17.72C170.654 17.6347 171.316 17.688 171.956 17.88C172.98 18.2 173.492 18.872 173.492 19.896C173.492 20.4507 173.3 20.9733 172.916 21.464C172.553 21.9333 171.892 22.3067 170.932 22.584C169.993 22.8613 168.66 23 166.932 23Z" fill="white"/>
</svg>
