<svg width="10" height="10" viewBox="0 0 10 10" fill="none" xmlns="http://www.w3.org/2000/svg">
<g clip-path="url(#clip0_5293_3425)">
<path d="M10.0097 2.75117C9.9636 2.57459 9.89005 2.41609 9.74135 2.29831C9.49221 2.10092 9.13041 2.09678 8.88085 2.29573C8.83255 2.33423 8.78713 2.37678 8.74341 2.4205C7.52552 3.63789 6.30799 4.85562 5.09074 6.07362C5.0633 6.10109 5.03957 6.13228 4.98427 6.19631C4.95549 6.14737 4.94171 6.10748 4.91488 6.08059C3.6891 4.85264 2.46169 3.62636 1.23588 2.39845C1.01977 2.18198 0.772407 2.09137 0.471963 2.18414C0.025407 2.32206 -0.155815 2.89192 0.129379 3.26203C0.161129 3.30326 0.19574 3.34273 0.232518 3.37953C1.64352 4.79123 3.05471 6.2027 4.46644 7.6137C4.73027 7.87739 5.05816 7.93142 5.35574 7.75612C5.42763 7.71375 5.49155 7.65456 5.5511 7.59506C6.92646 6.22151 8.29991 4.84606 9.67627 3.47353C9.8288 3.32142 9.96488 3.16448 10.0098 2.94687C10.0097 2.88164 10.0097 2.81639 10.0097 2.75117Z" fill="#212121"/>
</g>
<defs>
<clipPath id="clip0_5293_3425">
<rect width="10" height="10" fill="white" transform="matrix(-4.37114e-08 1 1 4.37114e-08 0 0)"/>
</clipPath>
</defs>
</svg>
