<svg width="9" height="10" viewBox="0 0 9 10" fill="none" xmlns="http://www.w3.org/2000/svg">
<path d="M0.540381 8.07554C0.28654 8.32938 0.28654 8.74093 0.540381 8.99478C0.794221 9.24862 1.20578 9.24862 1.45962 8.99478L0.540381 8.07554ZM8.72107 1.46409C8.72107 1.1051 8.43005 0.814089 8.07107 0.814088L2.22107 0.814089C1.86208 0.814088 1.57107 1.1051 1.57107 1.46409C1.57107 1.82307 1.86208 2.11409 2.22107 2.11409L7.42107 2.11409L7.42107 7.31409C7.42107 7.67307 7.71208 7.96409 8.07107 7.96409C8.43005 7.96409 8.72107 7.67307 8.72107 7.31409L8.72107 1.46409ZM1.45962 8.99478L8.53069 1.92371L7.61145 1.00447L0.540381 8.07554L1.45962 8.99478Z" fill="white"/>
</svg>
