<svg width="10" height="10" viewBox="0 0 10 10" fill="none" xmlns="http://www.w3.org/2000/svg">
<g clip-path="url(#clip0_5293_3415)">
<path d="M10.0097 7.24883C9.9636 7.42541 9.89005 7.58391 9.74135 7.70169C9.49221 7.89908 9.13041 7.90322 8.88085 7.70427C8.83255 7.66577 8.78713 7.62322 8.74341 7.5795C7.52552 6.36211 6.30799 5.14438 5.09074 3.92638C5.0633 3.89891 5.03957 3.86772 4.98427 3.80369C4.95549 3.85263 4.94171 3.89252 4.91488 3.91941C3.6891 5.14736 2.46169 6.37364 1.23588 7.60155C1.01977 7.81802 0.772407 7.90863 0.471963 7.81586C0.025407 7.67794 -0.155815 7.10808 0.129379 6.73797C0.161129 6.69674 0.19574 6.65727 0.232518 6.62047C1.64352 5.20877 3.05471 3.7973 4.46644 2.3863C4.73027 2.12261 5.05816 2.06858 5.35574 2.24388C5.42763 2.28625 5.49155 2.34544 5.5511 2.40494C6.92646 3.77849 8.29991 5.15394 9.67627 6.52647C9.8288 6.67858 9.96488 6.83552 10.0098 7.05313C10.0097 7.11836 10.0097 7.18361 10.0097 7.24883Z" fill="#212121"/>
</g>
<defs>
<clipPath id="clip0_5293_3415">
<rect width="10" height="10" fill="white" transform="translate(0 10) rotate(-90)"/>
</clipPath>
</defs>
</svg>
